<?xml version="1.0" encoding="UTF-8"?>
<!-- Created with Inkscape (http://www.inkscape.org/) -->
<svg width="226.27" height="226.27" version="1.1" viewBox="0 0 59.868 59.868" xmlns="http://www.w3.org/2000/svg" xmlns:cc="http://creativecommons.org/ns#" xmlns:dc="http://purl.org/dc/elements/1.1/" xmlns:rdf="http://www.w3.org/1999/02/22-rdf-syntax-ns#">
 <defs>
  <clipPath id="clipPath2166">
   <path d="m75.062 202.11 20.828 24.203 63.165-17.532 5.3736-31.475-44.683 12.402z" fill="#00171f" style="paint-order:normal"/>
  </clipPath>
  <clipPath id="clipPath2170">
   <path d="m67.551 199.32 19.959 23.352 63.998-20.33 6.5877-31.785-45.272 14.381z" fill="#00171f" style="paint-order:normal"/>
  </clipPath>
  <clipPath id="clipPath2796">
   <path d="m18.275 214.82 13.596 28.892h65.553l13.596-28.892h-46.372z" fill="#00171f" style="paint-order:normal"/>
  </clipPath>
 </defs>
 <metadata>
  <rdf:RDF>
   <cc:Work rdf:about="">
    <dc:format>image/svg+xml</dc:format>
    <dc:type rdf:resource="http://purl.org/dc/dcmitype/StillImage"/>
    <dc:title/>
   </cc:Work>
  </rdf:RDF>
 </metadata>
 <g transform="translate(-33.566 -177.53)">
  <rect y="117.93" width="127" height="179.07" fill="#00171f" style="paint-order:normal"/>
  <path transform="matrix(.26458 0 0 .26458 0 85.333)" d="m31 178v115.66h418v-115.66h-209z" fill="#003459" style="paint-order:normal"/>
  <g transform="translate(44.206 37.829)">
   <circle cx="19.294" cy="169.64" r="29.934" fill="#fff" style="paint-order:normal"/>
   <g transform="matrix(.43636 0 0 .43636 -9.8034 69.604)">
    <g transform="translate(-5.6612 -11.361)">
     <path transform="translate(9.8528 16.031)" d="m23.902 226.78h52.617l-3.6709 4.1771h-48.947z" clip-path="url(#clipPath2796)" fill="#003459" style="paint-order:normal"/>
     <rect x="97.647" y="216.19" width="7.5025" height="17.287" ry="0" fill="#00171f" style="paint-order:normal"/>
     <path d="m28.128 230.85 13.596 28.892h65.553l13.596-28.892h-46.372z" fill="#00171f" style="paint-order:normal"/>
     <rect transform="rotate(15.512 -53.924 44.186)" x="65.869" y="167.86" width="64.127" height="69.457" clip-path="url(#clipPath2166)" fill="#007ea7" style="paint-order:normal"/>
     <rect transform="matrix(.95103 .3091 -.23063 .97304 9.8528 16.031)" x="55.266" y="166.78" width="49.302" height="61.117" clip-path="url(#clipPath2170)" fill="#00a8e8" style="paint-order:normal"/>
     <ellipse cx="101.4" cy="216.19" rx="8.0226" ry="7.6954" fill="#00a8e8" style="paint-order:normal"/>
     <rect x="40.347" y="227.03" width="13.478" height="3.829" fill="#003459" style="paint-order:normal"/>
     <rect x="68.985" y="227.03" width="13.478" height="3.829" fill="#00a8e8" style="paint-order:normal"/>
    </g>
   </g>
  </g>
  <g>
   <rect y="85.333" width="127" height="32.596" fill="#fff" style="paint-order:normal"/>
   <g transform="translate(28.148 1.9801)" fill="#000000" font-family="'Arial Black'" font-size="10.583px" letter-spacing="0px" stroke-width=".26458" word-spacing="0px">
    <text x="6.4285431" y="97.536736" style="line-height:1.25" xml:space="preserve"><tspan x="6.4285431" y="97.536736" stroke-width=".26458">LA JOLLA</tspan></text>
    <text x="-3.6251101" y="109.33632" style="line-height:1.25" xml:space="preserve"><tspan x="-3.6251101" y="109.33632" stroke-width=".26458">GAMES CLUB</tspan></text>
   </g>
  </g>
  <g>
   <text x="63.395267" y="157.326" fill="#00a8e8" font-family="'Arial Black'" font-size="10.583px" letter-spacing="0px" stroke-width=".26458" word-spacing="0px" style="line-height:1.25" xml:space="preserve"><tspan x="63.395267" y="157.326" fill="#00a8e8" font-size="26.811px" stroke-width=".26458" text-align="center" text-anchor="middle">GAMES</tspan></text>
   <rect x="25.377" y="251.89" width="76.242" height="30.275" fill="#003459" style="paint-order:normal"/>
   <text x="64.25708" y="276.61865" fill="#00a8e8" font-family="'Arial Black'" font-size="10.583px" letter-spacing="0px" stroke-width=".26458" word-spacing="0px" style="line-height:1.25" xml:space="preserve"><tspan x="64.25708" y="276.61865" fill="#00a8e8" font-size="26.811px" stroke-width=".26458" text-align="center" text-anchor="middle">JOIN</tspan></text>
  </g>
 </g>
</svg>
